<svg xmlns="http://www.w3.org/2000/svg" xmlns:xlink="http://www.w3.org/1999/xlink" fill="none" version="1.1" width="1441" height="45" viewBox="0 0 1441 45"><defs><linearGradient x1="0.5" y1="0" x2="0.5" y2="1" id="master_svg0_9_8668"><stop offset="0%" stop-color="#FFFFFF" stop-opacity="1"/><stop offset="100%" stop-color="#FFFFFF" stop-opacity="0"/></linearGradient></defs><g><g><path d="M510.5,44.5L930.5,44.5L904.3050000000001,0.5L771.3430000000001,0.5L763.7090000000001,6.41837L718.1279999999999,6.41837L672.844,6.41837L665.5070000000001,0.5L536.6947,0.5L510.5,44.5Z" fill="#D8D8D8" fill-opacity="0.5699999928474426"/><path d="M763.538,5.91837L771.172,0L904.5899999999999,0L931.38,45L509.620435,45L536.4105,0L665.683,0L673.021,5.91837L763.538,5.91837ZM718.1279999999999,6.91837L763.88,6.91837L771.514,1L904.021,1L929.62,44L511.379565,44L536.9789,1L665.33,1L672.668,6.91837L718.1279999999999,6.91837Z" fill-rule="evenodd" fill="#FFFFFF" fill-opacity="1"/></g><g><path d="M566.5,39.5L875.5,39.5L853.471,9.5L771.756,9.5L764.09,15.62245L718.321,15.62245L672.849,15.62245L665.4812,9.5L583.7659,9.5L566.5,39.5Z" fill="url(#master_svg0_9_8668)" fill-opacity="1"/></g><g><path d="M529.632327,28L553.8813,28L565.3067,5L542.9619,5L529.632327,28ZM553.2615,27L531.367672,27L543.5381,6L563.6933,6L553.2615,27Z" fill-rule="evenodd" fill="#FFFFFF" fill-opacity="1"/></g><g transform="matrix(-1,0,0,1,1815,0)"><path d="M906.645076,28L930.2069,28L941.2962,5L919.5826,5L906.645076,28ZM929.5788,27L908.354924,27L920.1674,6L939.7038,6L929.5788,27Z" fill-rule="evenodd" fill="#FFFFFF" fill-opacity="1"/></g><g><path d="M543.5,14.5L555.5909,14.5L557.5,11.5L545.40909,11.5L543.5,14.5Z" fill="#FFFFFF" fill-opacity="1"/></g><g transform="matrix(-1,0,0,1,1789,0)"><path d="M894.5,14.5L905.7273,14.5L907.5,11.5L896.27273,11.5L894.5,14.5Z" fill="#FFFFFF" fill-opacity="1"/></g><g><path d="M539.5,22.5L550.7273,22.5L552.5,19.5L541.27273,19.5L539.5,22.5Z" fill="#FFFFFF" fill-opacity="1"/></g><g transform="matrix(-1,0,0,1,1799,0)"><path d="M899.5,22.5L910.7273,22.5L912.5,19.5L901.27273,19.5L899.5,22.5Z" fill="#FFFFFF" fill-opacity="1"/></g><g><path d="M218.26977,44L510.558,44L510.705,43.7626L533.408,6.981049L250.2531,12.857859999999999L218.26977,44ZM510,43L220.73023,43L250.6682,13.84946L531.592,8.018951L510,43Z" fill-rule="evenodd" fill="#FFFFFF" fill-opacity="1"/></g><g><path d="M0,44L219.106,44L219.252,43.8574L247.741,15.985012L0,18.96895L0,44ZM218.698,43L1,43L1,19.95698L245.259,17.014988L218.698,43Z" fill-rule="evenodd" fill="#FFFFFF" fill-opacity="1"/></g><g><path d="M248.5,43.5L261.1,43.5L266.5,31.5L255.1,31.5L248.5,43.5Z" fill="#FFFFFF" fill-opacity="1"/></g><g><path d="M270.5,43.5L283.1,43.5L288.5,28.5L277.1,28.5L270.5,43.5Z" fill="#FFFFFF" fill-opacity="1"/></g><g><path d="M292.5,43.5L305.1,43.5L310.5,25.5L299.1,25.5L292.5,43.5Z" fill="#FFFFFF" fill-opacity="1"/></g><g transform="matrix(-1,0,0,1,2443,0)"><path d="M1220.26977,44L1512.558,44L1512.705,43.7626L1535.408,6.981049L1252.2531,12.857859999999999L1220.26977,44ZM1512,43L1222.73023,43L1252.6682,13.84946L1533.592,8.018951L1512,43Z" fill-rule="evenodd" fill="#FFFFFF" fill-opacity="1"/></g><g transform="matrix(-1,0,0,1,2881,0)"><path d="M1440,44L1659.106,44L1659.252,43.8574L1687.741,15.985012L1440,18.96895L1440,44ZM1658.698,43L1441,43L1441,19.95698L1685.259,17.014988L1658.698,43Z" fill-rule="evenodd" fill="#FFFFFF" fill-opacity="1"/></g><g transform="matrix(-1,0,0,1,2385,0)"><path d="M1192.5,43.5L1205.1,43.5L1210.5,31.5L1199.1,31.5L1192.5,43.5Z" fill="#FFFFFF" fill-opacity="1"/></g><g transform="matrix(-1,0,0,1,2341,0)"><path d="M1170.5,43.5L1183.1,43.5L1188.5,28.5L1177.1,28.5L1170.5,43.5Z" fill="#FFFFFF" fill-opacity="1"/></g><g transform="matrix(-1,0,0,1,2297,0)"><path d="M1148.5,43.5L1161.1,43.5L1166.5,25.5L1155.1,25.5L1148.5,43.5Z" fill="#FFFFFF" fill-opacity="1"/></g></g></svg>